<svg xmlns="http://www.w3.org/2000/svg" xmlns:xlink="http://www.w3.org/1999/xlink" width="100" zoomAndPan="magnify" viewBox="0 0 75 37.5" height="50" preserveAspectRatio="xMidYMid meet" version="1.0"><defs><g/></defs><g fill="#FFFCF2" fill-opacity="1"><g transform="translate(4.194079, 32.85227)"><g><path d="M 9.472656 -14.589844 L 13.703125 -3.722656 L 24.023438 -3.722656 L 28.25 -14.589844 L 28.886719 -14.589844 L 26.050781 -7.316406 L 26.050781 0 L 37.214844 0 L 37.214844 -29.605469 L 24.910156 -29.605469 L 18.863281 -15.734375 L 12.8125 -29.605469 L 0.464844 -29.605469 L 0.464844 0 L 11.671875 0 L 11.671875 -7.316406 L 8.839844 -14.589844 Z M 9.472656 -14.589844 "/></g></g></g><g fill="#FFFCF2" fill-opacity="1"><g transform="translate(41.833718, 32.85227)"><g><path d="M 7.019531 -19.03125 L 7.019531 0 L 17.972656 0 L 17.972656 -19.03125 L 24.570312 -19.03125 L 24.570312 -29.605469 L 0.421875 -29.605469 L 0.421875 -19.03125 Z M 7.019531 -19.03125 "/></g></g></g><g fill="#FFFCF2" fill-opacity="1"><g transform="translate(66.828126, 32.85227)"><g><path d="M 1.058594 -0.929688 C 1.058594 -0.421875 1.480469 0 1.988281 0 C 2.496094 0 2.917969 -0.421875 2.917969 -0.929688 C 2.917969 -1.4375 2.496094 -1.859375 1.988281 -1.859375 C 1.480469 -1.859375 1.058594 -1.4375 1.058594 -0.929688 Z M 1.058594 -0.929688 "/></g></g></g></svg>